<svg width="905" height="392" viewBox="0 0 905 392" fill="none" xmlns="http://www.w3.org/2000/svg">
<path d="M4.34659 148V2.54545H30.696V125.912H94.7585V148H4.34659ZM209.318 2.54545H235.668V97.5739C235.668 107.991 233.205 117.152 228.281 125.06C223.404 132.967 216.539 139.146 207.685 143.597C198.83 148 188.485 150.202 176.648 150.202C164.763 150.202 154.394 148 145.54 143.597C136.686 139.146 129.82 132.967 124.943 125.06C120.066 117.152 117.628 107.991 117.628 97.5739V2.54545H143.977V95.3722C143.977 101.433 145.303 106.83 147.955 111.565C150.653 116.3 154.441 120.017 159.318 122.716C164.195 125.367 169.972 126.693 176.648 126.693C183.324 126.693 189.1 125.367 193.977 122.716C198.902 120.017 202.689 116.3 205.341 111.565C207.992 106.83 209.318 101.433 209.318 95.3722V2.54545ZM388.81 51.6222H362.248C361.49 47.2661 360.094 43.4072 358.058 40.0455C356.022 36.6364 353.488 33.7481 350.458 31.3807C347.428 29.0133 343.971 27.2377 340.089 26.054C336.254 24.8229 332.111 24.2074 327.66 24.2074C319.753 24.2074 312.745 26.196 306.637 30.1733C300.529 34.1032 295.747 39.8797 292.29 47.5028C288.834 55.0786 287.106 64.3352 287.106 75.2727C287.106 86.3996 288.834 95.7746 292.29 103.398C295.794 110.973 300.576 116.703 306.637 120.585C312.745 124.42 319.729 126.338 327.589 126.338C331.945 126.338 336.017 125.77 339.805 124.634C343.64 123.45 347.073 121.722 350.103 119.449C353.181 117.176 355.761 114.383 357.844 111.068C359.975 107.754 361.443 103.966 362.248 99.7045L388.81 99.8466C387.816 106.759 385.662 113.246 382.347 119.307C379.08 125.367 374.795 130.718 369.492 135.358C364.189 139.951 357.987 143.549 350.884 146.153C343.782 148.71 335.898 149.989 327.234 149.989C314.45 149.989 303.039 147.029 293.001 141.111C282.963 135.192 275.056 126.646 269.279 115.472C263.503 104.297 260.614 90.8977 260.614 75.2727C260.614 59.6004 263.526 46.2008 269.35 35.0739C275.174 23.8996 283.105 15.3532 293.143 9.43465C303.181 3.51609 314.544 0.556813 327.234 0.556813C335.33 0.556813 342.859 1.69318 349.819 3.9659C356.779 6.23863 362.982 9.5767 368.427 13.9801C373.872 18.3362 378.346 23.6866 381.85 30.0312C385.401 36.3286 387.721 43.5256 388.81 51.6222ZM429.862 148H401.737L452.944 2.54545H485.472L536.751 148H508.626L469.776 32.375H468.64L429.862 148ZM430.785 90.9688H507.489V112.134H430.785V90.9688ZM632.614 42.5312C631.951 36.3286 629.157 31.4991 624.233 28.0426C619.356 24.5862 613.011 22.858 605.199 22.858C599.706 22.858 594.995 23.6866 591.065 25.3438C587.135 27.0009 584.129 29.25 582.045 32.0909C579.962 34.9318 578.897 38.1752 578.849 41.821C578.849 44.8513 579.536 47.4792 580.909 49.7045C582.33 51.9299 584.247 53.8239 586.662 55.3864C589.077 56.9015 591.752 58.1799 594.688 59.2216C597.623 60.2633 600.582 61.1392 603.565 61.8494L617.202 65.2585C622.694 66.5369 627.973 68.2651 633.04 70.4432C638.153 72.6212 642.723 75.3674 646.747 78.6818C650.819 81.9962 654.039 85.9972 656.406 90.6847C658.774 95.3722 659.957 100.865 659.957 107.162C659.957 115.685 657.779 123.189 653.423 129.676C649.067 136.116 642.77 141.158 634.531 144.804C626.34 148.402 616.42 150.202 604.773 150.202C593.456 150.202 583.632 148.45 575.298 144.946C567.012 141.442 560.526 136.329 555.838 129.605C551.198 122.882 548.688 114.69 548.31 105.031H574.233C574.612 110.098 576.174 114.312 578.92 117.673C581.667 121.035 585.241 123.545 589.645 125.202C594.096 126.859 599.067 127.688 604.56 127.688C610.289 127.688 615.308 126.835 619.616 125.131C623.973 123.379 627.382 120.964 629.844 117.886C632.306 114.761 633.561 111.116 633.608 106.949C633.561 103.161 632.448 100.036 630.27 97.5739C628.092 95.0644 625.038 92.9811 621.108 91.3239C617.225 89.6193 612.68 88.1042 607.472 86.7784L590.923 82.517C578.944 79.4394 569.474 74.7756 562.514 68.5256C555.601 62.2282 552.145 53.8712 552.145 43.4545C552.145 34.8845 554.465 27.3797 559.105 20.9403C563.793 14.5009 570.161 9.50568 578.21 5.95454C586.259 2.35605 595.374 0.556813 605.554 0.556813C615.876 0.556813 624.92 2.35605 632.685 5.95454C640.497 9.50568 646.629 14.4536 651.08 20.7983C655.53 27.0956 657.827 34.34 657.969 42.5312H632.614Z" fill="url(#paint0_linear_1_4)"/>
<path d="M101.79 290.994C100.606 287.159 98.9725 283.726 96.8892 280.696C94.8532 277.618 92.3911 274.991 89.5028 272.812C86.6619 270.634 83.3949 269.001 79.7017 267.912C76.0085 266.776 71.9839 266.207 67.6278 266.207C59.8153 266.207 52.8551 268.172 46.7472 272.102C40.6392 276.032 35.8333 281.809 32.3295 289.432C28.8731 297.008 27.1449 306.241 27.1449 317.131C27.1449 328.116 28.8731 337.42 32.3295 345.043C35.786 352.666 40.5919 358.466 46.7472 362.443C52.9025 366.373 60.0521 368.338 68.196 368.338C75.5824 368.338 81.9744 366.918 87.3722 364.077C92.8172 361.236 97.0076 357.211 99.9432 352.003C102.879 346.747 104.347 340.592 104.347 333.537L110.312 334.46H70.8239V313.864H129.844V331.335C129.844 343.788 127.192 354.56 121.889 363.651C116.586 372.741 109.295 379.749 100.014 384.673C90.7339 389.55 80.0805 391.989 68.054 391.989C54.6544 391.989 42.8883 388.982 32.7557 382.969C22.6705 376.908 14.7869 368.314 9.10511 357.188C3.47064 346.013 0.653409 332.756 0.653409 317.415C0.653409 305.672 2.31061 295.185 5.625 285.952C8.98674 276.719 13.6742 268.883 19.6875 262.443C25.7008 255.956 32.7557 251.032 40.8523 247.67C48.9489 244.261 57.7557 242.557 67.2727 242.557C75.322 242.557 82.8267 243.741 89.7869 246.108C96.7472 248.428 102.926 251.742 108.324 256.051C113.769 260.36 118.243 265.473 121.747 271.392C125.251 277.311 127.547 283.845 128.636 290.994H101.79ZM169.51 390H141.385L192.592 244.545H225.121L276.399 390H248.274L209.425 274.375H208.288L169.51 390ZM170.433 332.969H247.138V354.134H170.433V332.969ZM295.558 390V244.545H351.239C361.751 244.545 370.487 246.203 377.447 249.517C384.454 252.784 389.686 257.259 393.143 262.94C396.647 268.622 398.398 275.062 398.398 282.259C398.398 288.177 397.262 293.243 394.989 297.457C392.717 301.624 389.663 305.009 385.827 307.614C381.992 310.218 377.707 312.088 372.972 313.224V314.645C378.133 314.929 383.081 316.515 387.816 319.403C392.598 322.244 396.504 326.269 399.535 331.477C402.565 336.686 404.08 342.983 404.08 350.369C404.08 357.898 402.257 364.669 398.612 370.682C394.966 376.648 389.473 381.359 382.134 384.815C374.795 388.272 365.562 390 354.435 390H295.558ZM321.907 367.983H350.245C359.809 367.983 366.699 366.16 370.913 362.514C375.174 358.821 377.305 354.086 377.305 348.31C377.305 344.001 376.239 340.118 374.109 336.662C371.978 333.158 368.948 330.412 365.018 328.423C361.088 326.387 356.4 325.369 350.955 325.369H321.907V367.983ZM321.907 306.406H347.972C352.518 306.406 356.613 305.578 360.259 303.92C363.905 302.216 366.77 299.825 368.853 296.747C370.984 293.622 372.049 289.929 372.049 285.668C372.049 280.033 370.06 275.393 366.083 271.747C362.153 268.101 356.306 266.278 348.54 266.278H321.907V306.406ZM427.003 390V244.545H481.548C492.723 244.545 502.098 246.487 509.673 250.369C517.296 254.252 523.049 259.697 526.932 266.705C530.862 273.665 532.827 281.785 532.827 291.065C532.827 300.393 530.838 308.49 526.861 315.355C522.931 322.173 517.131 327.453 509.46 331.193C501.79 334.886 492.367 336.733 481.193 336.733H442.344V314.858H477.642C484.176 314.858 489.527 313.958 493.693 312.159C497.86 310.312 500.938 307.637 502.926 304.134C504.962 300.582 505.98 296.226 505.98 291.065C505.98 285.904 504.962 281.501 502.926 277.855C500.89 274.162 497.789 271.368 493.622 269.474C489.455 267.533 484.081 266.562 477.5 266.562H453.352V390H427.003ZM502.145 324.091L538.153 390H508.75L473.381 324.091H502.145ZM541.474 244.545H571.232L606.815 308.892H608.235L643.817 244.545H673.576L620.664 335.739V390H594.386V335.739L541.474 244.545ZM692.237 390V244.545H786.839V266.634H718.587V306.122H781.939V328.21H718.587V367.912H787.408V390H692.237ZM813.722 390V244.545H840.071V367.912H904.134V390H813.722Z" fill="white"/>
<defs>
<linearGradient id="paint0_linear_1_4" x1="-10" y1="-12.5" x2="666.5" y2="-16" gradientUnits="userSpaceOnUse">
<stop stop-color="#FF077E"/>
<stop offset="0.875" stop-color="#7949FF" stop-opacity="0.88"/>
<stop offset="1" stop-color="#D32CEE"/>
</linearGradient>
</defs>
</svg>
